<?xml version="1.0" encoding="UTF-8"?>
<!DOCTYPE svg PUBLIC "-//W3C//DTD SVG 1.1//EN" "http://www.w3.org/Graphics/SVG/1.1/DTD/svg11.dtd">
<!-- Creator: CorelDRAW X7 -->
<svg xmlns="http://www.w3.org/2000/svg" xml:space="preserve" width="225mm" height="145mm" version="1.1" style="shape-rendering:geometricPrecision; text-rendering:geometricPrecision; image-rendering:optimizeQuality; fill-rule:evenodd; clip-rule:evenodd"
viewBox="0 0 22500 14500"
 xmlns:xlink="http://www.w3.org/1999/xlink">
 <defs>
  <style type="text/css">
   <![CDATA[
    .fil0 {fill:#01ACB3}
    .fil9 {fill:#043869}
    .fil4 {fill:#0A6DBA}
    .fil6 {fill:#2F2F32}
    .fil3 {fill:#486A0B}
    .fil2 {fill:#4C140C}
    .fil8 {fill:#717170}
    .fil7 {fill:#8D0E0E}
    .fil1 {fill:#EE0406}
    .fil5 {fill:#FDFDCB}
   ]]>
  </style>
   <clipPath id="id0">
    <rect x="705" y="688" width="24271" height="10125"/>
   </clipPath>
 </defs>
 <g id="Camada_x0020_1">
  <metadata id="CorelCorpID_0Corel-Layer"/>
  <g style="clip-path:url(#id0)">
   <image x="705" y="688" width="24271" height="10125" xlink:href="logo_Images\logo_ImgID1.png"/>
  </g>
  <g id="_2984691855520">
   <path class="fil0" d="M10971 8661c315,0 529,-134 529,705 0,55 -58,226 -83,271 -120,218 -344,71 -446,47 0,-139 91,-818 0,-1023zm0 -2082l317 0c67,0 353,180 353,283 0,248 -4,677 -111,877 -123,230 -345,218 -489,252l-35 -1059c-8,-160 -35,-167 -35,-353zm-918 -670l0 3387c0,400 59,756 69,1025 13,356 -168,280 1096,280 288,0 860,-33 1068,-201 97,-78 140,-103 169,-184l108 -813c23,-216 12,-193 -52,-412 -72,-241 -45,-475 -482,-577 107,-147 224,-31 401,-375 70,-135 76,-121 94,-294 61,-566 46,-394 -86,-975 -44,-195 -78,-427 -140,-600 -69,-191 -297,-207 -488,-254 -691,-171 -878,-113 -1651,-113 -81,0 -106,25 -106,106z"/>
   <path class="fil0" d="M13617 6368c401,0 599,-94 599,846 0,621 -140,530 -599,530 0,-425 -62,-1110 0,-1376zm-494 -565l-212 0c0,816 31,1534 35,2364 2,248 -34,352 -36,563l1 1836 1058 0c0,-224 -35,-295 -35,-529l0 -1623c144,3 269,34 361,133 137,148 96,432 128,719l40 1335c952,0 853,70 848,-281 -8,-523 191,-1344 -31,-1876 -85,-204 -300,-226 -429,-418 575,-134 456,-331 494,-1094 19,-372 144,-330 -133,-748 -365,-552 -955,-311 -1516,-391 -244,-35 -296,10 -573,10z"/>
   <path class="fil0" d="M16615 8414l-247 0 71 -1552c383,0 373,-38 432,202 149,604 132,688 132,1315 -179,0 -192,35 -388,35zm-529 -2611c0,164 -47,410 -69,567l-399 3622c-17,124 -58,474 -61,609 801,0 656,137 737,-709 27,-277 74,-522 74,-808l600 35 34 1131c2,183 33,199 36,351l1024 -70c0,-229 -38,-317 -36,-564 1,-212 0,-424 1,-636 1,-248 -37,-336 -37,-563 -1,-760 -49,-1295 -107,-2045l-68 -884c-154,-4 -125,-28 -282,-36 -103,-5 -214,7 -316,-1 -770,-63 -610,1 -1131,1z"/>
   <path class="fil0" d="M2151 8414l-247 0c0,-496 71,-1056 71,-1552l282 0c253,0 282,1171 282,1517 -179,0 -192,35 -388,35zm-529 -2611l-529 4798c828,0 639,141 734,-712 30,-265 77,-546 77,-805l600 35c0,124 -7,267 0,389 8,157 34,169 37,351 3,279 -21,509 34,742l1023 -70c-47,-562 -19,-688 -34,-1201 -6,-197 -38,-319 -37,-563 4,-1069 -176,-2009 -176,-2928 -154,-4 -125,-28 -282,-36 -103,-5 -214,7 -316,-1 -770,-63 -610,1 -1131,1z"/>
   <path class="fil0" d="M18908 5801c-737,20 -571,199 -529,990 14,251 -9,524 -1,777l36 775 986 38c137,11 145,33 320,33 0,180 -37,299 -36,529 1,200 0,400 0,600 -164,0 -462,-39 -599,-71l0 -670c-226,-52 -461,-71 -741,-71 0,204 -37,268 -36,494 0,172 -16,420 -16,530 -1,177 32,477 195,597 98,72 64,46 183,99 331,148 1000,254 1379,57 137,-71 251,-123 376,-189 0,-314 68,-618 72,-916 4,-328 -2,-660 -1,-989 0,-569 110,-518 -420,-568 -305,-28 -571,-67 -921,-67 0,-550 -108,-594 0,-1058l423 0 0 599c307,0 540,36 882,36 0,-243 22,-452 43,-706 -27,-252 -139,-559 -210,-776 -56,0 -44,15 -44,-35 -130,-3 -154,-30 -282,-42 -364,32 -220,-111 -579,64 -68,33 -182,79 -273,80 -148,1 -149,-59 -207,-140z"/>
   <path class="fil0" d="M3880 5839c0,183 -36,327 -36,564l36 1799c0,831 35,1556 35,2399l2046 -35 36 -741c-618,0 -584,-75 -953,-106l0 -3951 -882 35c-157,8 -129,32 -282,36z"/>
   <path class="fil0" d="M6208 5839c-3,165 -36,179 -35,564 3,1405 70,2807 70,4198l2047 -35 35 -741c-406,0 -551,-12 -953,-106l-6 -3875c-59,-160 -139,-38 -522,-40 -395,-2 -458,31 -636,35z"/>
   <path class="fil1" d="M17980 2707c120,-311 137,-392 461,-521 296,-118 543,-49 681,160 0,291 -234,257 -249,634 -11,248 -165,482 -317,626 7,324 207,546 210,753 87,9 29,-41 142,104 50,64 69,91 139,141 37,26 121,72 181,79 76,8 56,9 126,-16l104 -62 -32 -329c230,87 218,360 570,284 68,-130 36,-295 31,-459 219,96 188,290 528,240 168,-293 -45,-256 135,-423l75 126 37 14 229 15c197,-276 -30,-682 -194,-834 -218,-200 -452,-274 -720,-403 -35,-531 -107,-276 -131,-570 270,-7 365,8 386,-136l-326 -6c-75,-7 -109,-15 -187,-46 -124,-49 -97,-25 -134,-111l380 -26c132,-22 109,-53 189,-101 -245,-63 -456,16 -674,-129 94,-59 111,-26 225,-62 91,-28 92,-38 124,-104 -377,-24 -550,-6 -933,-65 -305,-47 -558,-76 -848,39 -213,85 -396,258 -557,431 -157,170 -280,412 -188,749 192,191 390,271 537,8z"/>
   <path class="fil0" d="M8537 9049c0,420 -10,1174 70,1517 1385,0 927,185 1053,-923l-28 -948c-3,-200 -38,-244 -38,-456l36 -1236 -1058 -35c0,733 -35,1346 -35,2081z"/>
   <path class="fil1" d="M20367 5725l22 3 -35 1c9,159 243,847 317,1069l256 800c54,89 15,46 158,119 6,3 22,21 26,13 27,-46 86,253 107,284 87,126 87,13 221,83 131,69 126,448 306,262 77,-89 -57,-447 -90,-577l-447 -1882 -269 -40c-24,83 56,-8 -50,86 -133,117 -433,91 -522,-221z"/>
   <path class="fil2" d="M18908 5107l92 46 223 -63c-251,-157 -593,-31 -787,-363 -118,-203 -160,-836 -37,-1040 122,-150 -85,74 57,-53 42,-38 21,49 49,-44 5,-16 19,-15 28,-24 -95,-13 -204,48 -387,-34 -93,-195 -78,-262 -70,-534 43,216 -28,152 -47,175 -383,46 -250,273 -425,507 -148,-219 -346,-548 -130,-847 177,55 360,200 509,-17l35 121c8,-8 34,-33 39,-38l57 -46c42,74 8,50 92,79 -76,-125 -106,-138 -101,-342 -65,83 -20,47 -125,117 -147,263 -345,183 -537,-8 -92,-337 31,-579 188,-749 161,-173 344,-346 557,-431 290,-115 543,-86 848,-39 383,59 556,41 933,65 -32,66 -33,76 -124,104 -114,36 -131,3 -225,62 218,145 429,66 674,129 -80,48 -57,79 -189,101l-138 53c51,84 14,84 79,130l326 6c-21,144 -116,129 -386,136 24,294 96,39 131,570 268,129 502,203 720,403 164,152 391,558 194,834l-229 -15c85,174 215,58 334,29l65 -112c0,-557 -181,-796 -623,-1041 -347,-192 -321,-30 -372,-298 -22,-117 -53,-169 -63,-290 267,0 353,-15 353,-282 -104,-24 -108,-35 -247,-35 116,-158 448,-318 -247,-318 57,-86 170,-134 66,-238 -80,-80 -214,-43 -328,-24 -516,87 -1274,-402 -1970,218 -234,209 -423,391 -449,716 -3,44 -4,167 1,210 18,165 22,56 41,169 21,131 -52,91 -76,259 -16,116 18,237 47,335 36,122 61,172 119,269 68,112 83,164 256,168 24,-292 72,-418 282,-530 17,206 106,342 282,388 0,459 -270,1338 635,1456z"/>
   <path class="fil0" d="M8537 5839l35 811 1058 0c2,-99 136,-952 -106,-952 -493,0 -987,-88 -987,141z"/>
   <path class="fil3" d="M19406 4734c-5,123 18,105 64,236 7,4 16,4 19,14 2,9 15,11 18,13 27,23 23,21 54,48 190,174 465,232 421,-221 90,33 160,91 201,200 439,43 342,-79 278,-448 172,133 215,293 462,244 44,-146 -11,-287 -32,-419 42,42 93,103 151,151 96,80 100,73 158,72 239,-4 12,-382 -35,-475 -32,-63 -8,5 -29,-62 -119,29 -249,145 -334,-29l-37 -14 -79 31c-11,599 -371,273 -566,184 -19,581 -341,437 -613,166 -7,130 21,270 -101,309z"/>
   <path class="fil1" d="M19000 5153l86 113c163,9 195,-35 281,-99 94,119 115,214 313,105 -31,-169 -132,-109 -210,-302 -93,-38 -120,-52 -138,-164 -265,-93 -560,-199 -566,-447 -83,-33 -24,15 -85,-60 -79,-98 -191,-492 -210,-609l-72 -3c-123,204 -81,837 37,1040 194,332 536,206 787,363l-223 63z"/>
   <path class="fil2" d="M20267 5768l-18 71 44 35c71,217 183,524 210,776 271,485 134,889 475,1140 271,199 -32,377 435,377 13,152 76,220 141,317 177,0 183,-3 318,-35 0,-282 -59,-429 -114,-663 -49,-210 -96,-425 -154,-656l-297 -1287 -178 7c-108,-43 -138,-53 -184,-106l-61 9c-39,342 -367,194 -437,-28l-80 0c89,312 389,338 522,221 106,-94 26,-3 50,-86l269 40 447 1882c33,130 167,488 90,577 -180,186 -175,-193 -306,-262 -134,-70 -134,43 -221,-83 -21,-31 -80,-330 -107,-284 -4,8 -20,-10 -26,-13 -143,-73 -104,-30 -158,-119l-256 -800c-74,-222 -308,-910 -317,-1069 -104,5 -71,-10 -87,39z"/>
   <path class="fil4" d="M20183 5024l-109 -24c-60,231 -167,167 -56,399 64,132 135,278 306,254 129,-128 87,-218 108,-415 201,82 123,344 373,305 244,-39 99,-303 78,-483 208,97 129,278 388,200 59,-117 31,-233 -9,-365 -56,-183 -64,-164 -202,-243l-45 88c-68,153 -162,282 -430,59 -10,184 -60,365 -297,307 -193,-46 -79,-34 -105,-82z"/>
   <path class="fil5" d="M18343 2735c-9,-257 109,-342 337,-289l88 246c-324,-231 -260,-186 -425,43zm-238 -145c-5,204 25,217 101,342 89,60 134,111 235,161 141,70 133,14 232,165 186,-98 94,-293 144,-474 48,-175 190,-223 233,-403 -212,-252 -519,-213 -785,-8 -93,72 -85,108 -160,217z"/>
   <path class="fil6" d="M19330 5592c2,-651 -54,-116 339,-236 -45,284 53,221 192,370 -162,-146 -812,148 -812,148 96,-150 76,-34 178,-176 -7,-4 -18,-6 -22,-7l-231 -29c94,-79 208,-69 356,-70zm408 -353c37,-23 10,-30 84,-36 132,-10 32,5 77,36 -29,79 75,76 -76,84 -103,6 -51,-19 -85,-84zm-268 -269c78,193 179,133 210,302 -198,109 -219,14 -313,-105 -86,64 -118,108 -281,99l-86 -113 -92 -46c10,387 293,78 318,379 -194,45 -396,7 -494,141 27,101 -12,42 65,111l65 40c5,4 18,9 23,12 5,2 16,6 23,11 58,81 59,141 207,140 91,-1 205,-47 273,-80 359,-175 215,-32 579,-64 35,-55 15,-24 35,-99 -63,-67 -146,-150 -247,-177l0 -106c229,0 170,12 263,161 65,104 119,165 249,192 16,-49 -17,-34 87,-39l35 -1c18,-99 37,-71 -65,-75 -171,24 -242,-122 -306,-254 -111,-232 -4,-168 56,-399l109 24c-41,-109 -111,-167 -201,-200 44,453 -231,395 -421,221 -31,-27 -27,-25 -54,-48 -3,-2 -16,-4 -18,-13 -3,-10 -12,-10 -19,-14z"/>
   <path class="fil6" d="M21136 4087c21,67 -3,-1 29,62 47,93 274,471 35,475 -58,1 -62,8 -158,-72 -58,-48 -109,-109 -151,-151 21,132 76,273 32,419 -247,49 -290,-111 -462,-244 64,369 161,491 -278,448 26,48 -88,36 105,82 237,58 287,-123 297,-307 268,223 362,94 430,-59l45 -88c138,79 146,60 202,243 40,132 68,248 9,365 -49,102 -43,96 -28,233 -2,259 29,210 -94,338 -4,5 -14,13 -20,19l178 -7c67,-305 -70,-208 76,-600 51,-136 4,-232 -40,-398 -62,-236 99,-137 42,-421 -43,-213 -170,-296 -184,-449l-65 112z"/>
   <path class="fil5" d="M18029 3173l-11 -236 -35 -121c-149,217 -332,72 -509,17 -216,299 -18,628 130,847 175,-234 42,-461 425,-507z"/>
   <path class="fil6" d="M18018 2937l11 236c19,-23 90,41 47,-175 -8,272 -23,339 70,534 183,82 292,21 387,34 82,-121 117,-158 140,-308 -99,-151 -91,-95 -232,-165 -101,-50 -146,-101 -235,-161 -84,-29 -50,-5 -92,-79l-57 46c-5,5 -31,30 -39,38z"/>
   <path class="fil7" d="M17980 2707c105,-70 60,-34 125,-117 75,-109 67,-145 160,-217 266,-205 573,-244 785,8 -43,180 -185,228 -233,403 -50,181 42,376 -144,474 -23,150 -58,187 -140,308 -9,9 -23,8 -28,24 -28,93 -7,6 -49,44 -142,127 65,-97 -57,53l72 3c19,117 131,511 210,609 61,75 2,27 85,60 -3,-207 -203,-429 -210,-753 152,-144 306,-378 317,-626 15,-377 249,-343 249,-634 -138,-209 -385,-278 -681,-160 -324,129 -341,210 -461,521z"/>
   <path class="fil8" d="M19330 5592c-148,1 -262,-9 -356,70l231 29c4,1 15,3 22,7 -102,142 -82,26 -178,176 0,0 650,-294 812,-148 -139,-149 -237,-86 -192,-370 -393,120 -337,-415 -339,236z"/>
   <path class="fil2" d="M19458 4605c-18,51 -33,90 -52,129 122,-39 94,-179 101,-309 272,271 594,415 613,-166 195,89 555,415 566,-184l79 -31 -75 -126c-180,167 33,130 -135,423 -340,50 -309,-144 -528,-240 5,164 37,329 -31,459 -352,76 -340,-197 -570,-284l32 329z"/>
   <path class="fil9" d="M20324 5653c102,4 83,-24 65,75l-22 -3 80 0 51 -267c303,280 121,4 386,295l61 -9 -52 -118 98 -136c40,-75 27,-105 68,-173 17,10 87,52 100,66 5,4 11,13 15,18l50 67c4,6 12,17 19,25 -15,-137 -21,-131 28,-233 -259,78 -180,-103 -388,-200 21,180 166,444 -78,483 -250,39 -172,-223 -373,-305 -21,197 21,287 -108,415z"/>
   <path class="fil4" d="M20447 5725c70,222 398,370 437,28 -265,-291 -83,-15 -386,-295l-51 267z"/>
   <path class="fil4" d="M20945 5744c46,53 76,63 184,106 6,-6 16,-14 20,-19 123,-128 92,-79 94,-338 -7,-8 -15,-19 -19,-25l-50 -67c-4,-5 -10,-14 -15,-18 -13,-14 -83,-56 -100,-66 -41,68 -28,98 -68,173l-98 136 52 118z"/>
   <path class="fil7" d="M19470 4970c-46,-131 -69,-113 -64,-236 19,-39 34,-78 52,-129l-104 62c-70,25 -50,24 -126,16 -60,-7 -144,-53 -181,-79 -70,-50 -89,-77 -139,-141 -113,-145 -55,-95 -142,-104 6,248 301,354 566,447 18,112 45,126 138,164z"/>
   <path class="fil2" d="M18343 2735c165,-229 101,-274 425,-43l-88 -246c-228,-53 -346,32 -337,289z"/>
   <path class="fil7" d="M20046 2124c-65,-46 -28,-46 -79,-130l138 -53 -380 26c37,86 10,62 134,111 78,31 112,39 187,46z"/>
   <path class="fil7" d="M19738 5239c34,65 -18,90 85,84 151,-8 47,-5 76,-84 -45,-31 55,-46 -77,-36 -74,6 -47,13 -84,36z"/>
  </g>
 </g>
</svg>
